<?xml version="1.0" encoding="UTF-8" standalone="no"?>
<!-- Generator: Adobe Illustrator 16.0.3, SVG Export Plug-In . SVG Version: 6.00 Build 0)  -->

<svg
   xmlns:dc="http://purl.org/dc/elements/1.1/"
   xmlns:cc="http://creativecommons.org/ns#"
   xmlns:rdf="http://www.w3.org/1999/02/22-rdf-syntax-ns#"
   xmlns:svg="http://www.w3.org/2000/svg"
   xmlns="http://www.w3.org/2000/svg"
   xmlns:sodipodi="http://sodipodi.sourceforge.net/DTD/sodipodi-0.dtd"
   xmlns:inkscape="http://www.inkscape.org/namespaces/inkscape"
   version="1.1"
   id="_x30_"
   x="0px"
   y="0px"
   width="37.061001"
   height="37.061001"
   viewBox="0 0 37.061 37.061"
   enable-background="new 0 0 37.061 37.061"
   xml:space="preserve"
   sodipodi:docname="analog_left.svg"
   inkscape:version="0.92.5 (2060ec1f9f, 2020-04-08)"><metadata
   id="metadata37"><rdf:RDF><cc:Work
       rdf:about=""><dc:format>image/svg+xml</dc:format><dc:type
         rdf:resource="http://purl.org/dc/dcmitype/StillImage" /><dc:title></dc:title></cc:Work></rdf:RDF></metadata><defs
   id="defs35" /><sodipodi:namedview
   pagecolor="#ffffff"
   bordercolor="#666666"
   borderopacity="1"
   objecttolerance="10"
   gridtolerance="10"
   guidetolerance="10"
   inkscape:pageopacity="0"
   inkscape:pageshadow="2"
   inkscape:window-width="1920"
   inkscape:window-height="1029"
   id="namedview33"
   showgrid="false"
   inkscape:zoom="18.011084"
   inkscape:cx="22.695503"
   inkscape:cy="18.818533"
   inkscape:window-x="0"
   inkscape:window-y="25"
   inkscape:window-maximized="1"
   inkscape:current-layer="_x30_" />
<path
   style="opacity:1;fill:#c8c8c8;fill-opacity:1;stroke-width:1.15121949"
   d="M 0,18.529297 C -4.1424566e-4,28.763995 8.2965517,37.060961 18.53125,37.060547 28.765186,37.059883 37.060961,28.763233 37.060547,18.529297 37.059883,8.296124 28.764423,6.6399998e-4 18.53125,0 8.2973143,-4.1400002e-4 6.6437869e-4,8.295361 0,18.529297 Z m 2.453125,0.002 c 1.25e-4,-0.24675 0.1072656,-0.493812 0.3222656,-0.632812 l 4.6855469,-3.00586 c 0.231,-0.147 0.523625,-0.15839 0.765625,-0.02539 0.24,0.13 0.3886719,0.383203 0.3886719,0.658203 v 6.011718 c 0,0.273 -0.1486719,0.524251 -0.3886719,0.65625 -0.241,0.132002 -0.533625,0.12161 -0.765625,-0.02539 L 2.7753906,19.162156 C 2.5598906,19.02411 2.453,18.778 2.453125,18.53125 Z m 12.427734,-0.002 c 0,-2.013 1.637438,-3.650391 3.648438,-3.650391 2.013,-0.001 3.652344,1.637391 3.652344,3.650391 0,2.013 -1.640344,3.648437 -3.652344,3.648438 -2.012,0 -3.648438,-1.637438 -3.648438,-3.648438 z m 1.498047,0 c 0,1.186 0.965391,2.148438 2.150391,2.148438 1.185,0 2.150391,-0.964438 2.150391,-2.148438 0,-1.186 -0.965391,-2.150391 -2.150391,-2.150391 -1.185,-0.001 -2.150391,0.964391 -2.150391,2.150391 z m 12.060547,3.005859 v -6.011718 c 0,-0.273 0.147625,-0.52425 0.390625,-0.65625 0.24,-0.133 0.534578,-0.12161 0.767578,0.02539 l 4.683594,3.00586 c 0.215,0.14 0.345703,0.376812 0.345703,0.632812 0,0.255 -0.130703,0.49186 -0.345703,0.630859 l -4.683594,3.003907 c -0.231,0.147 -0.525578,0.159343 -0.767578,0.02734 -0.242,-0.131999 -0.390625,-0.385203 -0.390625,-0.658203 z m 1.501953,-1.371093 2.544922,-1.632813 -2.544922,-1.634765 z"
   id="path844"
   inkscape:connector-curvature="0"
   sodipodi:nodetypes="cccccccccsscccscssssscscccccscccscccccccc" /><g
   id="g30"
   style="fill:#000000;fill-opacity:1"
   transform="rotate(-90,0,37.061001)">
	<g
   id="g6"
   style="fill:#000000;fill-opacity:1">
		<g
   id="g4"
   style="fill:#000000;fill-opacity:1">
			
		</g>
	</g>
	<g
   id="g10"
   style="fill:#000000;fill-opacity:1">
		
	</g>
	<g
   id="g16"
   style="fill:#000000;fill-opacity:1">
		
		
	</g>
	<g
   id="g20"
   style="fill:#000000;fill-opacity:1">
		
	</g>
	<g
   id="g24"
   style="fill:#000000;fill-opacity:1">
		
	</g>
	<g
   id="g28"
   style="fill:#000000;fill-opacity:1">
		
	</g>
</g>
</svg>