<?xml version="1.0" encoding="UTF-8" standalone="no"?>
<!-- Generator: Adobe Illustrator 16.0.3, SVG Export Plug-In . SVG Version: 6.00 Build 0)  -->

<svg
   xmlns:dc="http://purl.org/dc/elements/1.1/"
   xmlns:cc="http://creativecommons.org/ns#"
   xmlns:rdf="http://www.w3.org/1999/02/22-rdf-syntax-ns#"
   xmlns:svg="http://www.w3.org/2000/svg"
   xmlns="http://www.w3.org/2000/svg"
   xmlns:sodipodi="http://sodipodi.sourceforge.net/DTD/sodipodi-0.dtd"
   xmlns:inkscape="http://www.inkscape.org/namespaces/inkscape"
   version="1.1"
   id="_x30_"
   x="0px"
   y="0px"
   width="37.061001"
   height="37.061001"
   viewBox="0 0 37.061 37.061"
   enable-background="new 0 0 37.061 37.061"
   xml:space="preserve"
   sodipodi:docname="analog.svg"
   inkscape:version="0.92.5 (2060ec1f9f, 2020-04-08)"><metadata
   id="metadata37"><rdf:RDF><cc:Work
       rdf:about=""><dc:format>image/svg+xml</dc:format><dc:type
         rdf:resource="http://purl.org/dc/dcmitype/StillImage" /><dc:title></dc:title></cc:Work></rdf:RDF></metadata><defs
   id="defs35" /><sodipodi:namedview
   pagecolor="#ffffff"
   bordercolor="#666666"
   borderopacity="1"
   objecttolerance="10"
   gridtolerance="10"
   guidetolerance="10"
   inkscape:pageopacity="0"
   inkscape:pageshadow="2"
   inkscape:window-width="1920"
   inkscape:window-height="1029"
   id="namedview33"
   showgrid="false"
   inkscape:zoom="18.011084"
   inkscape:cx="12.535093"
   inkscape:cy="18.596448"
   inkscape:window-x="0"
   inkscape:window-y="25"
   inkscape:window-maximized="1"
   inkscape:current-layer="_x30_" />
<path
   style="opacity:1;fill:#c8c8c8;fill-opacity:1;stroke-width:1.15121949"
   d="M 18.53125,0 C 8.2965517,-4.1424566e-4 -4.1424566e-4,8.2965517 0,18.53125 6.6437869e-4,28.765186 8.2973143,37.060961 18.53125,37.060547 28.764423,37.059883 37.059883,28.764423 37.060547,18.53125 37.060961,8.2973143 28.765186,6.6437869e-4 18.53125,0 Z m 0,14.880859 c 2.013,0 3.650391,1.637438 3.650391,3.648438 0.001,2.013 -1.637391,3.652344 -3.650391,3.652344 -2.013,0 -3.648437,-1.640344 -3.648438,-3.652344 0,-2.012 1.637438,-3.648438 3.648438,-3.648438 z m 0,1.498047 c -1.186,0 -2.148438,0.965391 -2.148438,2.150391 0,1.185 0.964438,2.150391 2.148438,2.150391 1.186,0 2.150391,-0.965391 2.150391,-2.150391 0.001,-1.185 -0.964391,-2.150391 -2.150391,-2.150391 z"
   id="path844"
   inkscape:connector-curvature="0"
   sodipodi:nodetypes="cccccssssscsccc" /><g
   id="g30"
   style="fill:#000000;fill-opacity:1">
	<g
   id="g6"
   style="fill:#000000;fill-opacity:1">
		<g
   id="g4"
   style="fill:#000000;fill-opacity:1">
			
		</g>
	</g>
	<g
   id="g10"
   style="fill:#000000;fill-opacity:1">
		
	</g>
	<g
   id="g16"
   style="fill:#000000;fill-opacity:1">
		
		
	</g>
	<g
   id="g20"
   style="fill:#000000;fill-opacity:1">
		
	</g>
	<g
   id="g24"
   style="fill:#000000;fill-opacity:1">
		
	</g>
	<g
   id="g28"
   style="fill:#000000;fill-opacity:1">
		
	</g>
</g>
</svg>