<?xml version="1.0" encoding="UTF-8" standalone="no"?>
<!-- Generator: Adobe Illustrator 16.0.3, SVG Export Plug-In . SVG Version: 6.00 Build 0)  -->

<svg
   xmlns:dc="http://purl.org/dc/elements/1.1/"
   xmlns:cc="http://creativecommons.org/ns#"
   xmlns:rdf="http://www.w3.org/1999/02/22-rdf-syntax-ns#"
   xmlns:svg="http://www.w3.org/2000/svg"
   xmlns="http://www.w3.org/2000/svg"
   xmlns:sodipodi="http://sodipodi.sourceforge.net/DTD/sodipodi-0.dtd"
   xmlns:inkscape="http://www.inkscape.org/namespaces/inkscape"
   version="1.1"
   id="_x30_"
   x="0px"
   y="0px"
   width="37.061px"
   height="37.061px"
   viewBox="0 0 37.061 37.061"
   enable-background="new 0 0 37.061 37.061"
   xml:space="preserve"
   sodipodi:docname="button_r2.svg"
   inkscape:version="0.92.5 (2060ec1f9f, 2020-04-08)"><metadata
   id="metadata13"><rdf:RDF><cc:Work
       rdf:about=""><dc:format>image/svg+xml</dc:format><dc:type
         rdf:resource="http://purl.org/dc/dcmitype/StillImage" /><dc:title></dc:title></cc:Work></rdf:RDF></metadata><defs
   id="defs11" /><sodipodi:namedview
   pagecolor="#ffffff"
   bordercolor="#666666"
   borderopacity="1"
   objecttolerance="10"
   gridtolerance="10"
   guidetolerance="10"
   inkscape:pageopacity="0"
   inkscape:pageshadow="2"
   inkscape:window-width="1920"
   inkscape:window-height="1029"
   id="namedview9"
   showgrid="false"
   inkscape:zoom="9.005542"
   inkscape:cx="-10.496833"
   inkscape:cy="20.974551"
   inkscape:window-x="0"
   inkscape:window-y="25"
   inkscape:window-maximized="1"
   inkscape:current-layer="_x30_"
   showguides="false" />
<g
   id="g4"
   style="fill:#646464;fill-opacity:1;stroke:#000000;stroke-opacity:1;stroke-width:0;stroke-miterlimit:4;stroke-dasharray:none">
	<path
   fill="#FFFFFF"
   d="M29.254,11.526c3.478,0,6.307,3.14,6.307,6.997c0,3.866-2.829,7.011-6.307,7.011H7.76   c-3.452-0.03-6.26-3.177-6.26-7.011c0-3.828,2.808-6.966,6.247-6.997H29.254 M29.254,10.026c-0.021,0-21.507,0-21.507,0   C3.466,10.064,0,13.846,0,18.523c0,4.678,3.466,8.473,7.747,8.511c0,0,21.483,0,21.507,0c4.313,0,7.807-3.812,7.807-8.511   S33.566,10.026,29.254,10.026L29.254,10.026z"
   id="path2"
   style="fill:#646464;fill-opacity:1;stroke:#000000;stroke-opacity:1;stroke-width:0;stroke-miterlimit:4;stroke-dasharray:none" />
</g>

<flowRoot
   xml:space="preserve"
   id="flowRoot843"
   style="font-style:normal;font-weight:normal;font-size:40px;line-height:1.25;font-family:sans-serif;letter-spacing:0px;word-spacing:0px;fill:#000000;fill-opacity:1;stroke:none"><flowRegion
     id="flowRegion845"><rect
       id="rect847"
       width="45.541061"
       height="40.358803"
       x="49.152939"
       y="-34.862469" /></flowRegion><flowPara
     id="flowPara849">2</flowPara><flowPara
     id="flowPara851" /></flowRoot><text
   xml:space="preserve"
   style="font-style:normal;font-weight:normal;font-size:40px;line-height:1.25;font-family:sans-serif;letter-spacing:0px;word-spacing:0px;fill:#000000;fill-opacity:1;stroke:none"
   x="59.203377"
   y="-21.043112"
   id="text855"><tspan
     sodipodi:role="line"
     id="tspan853"
     x="59.203377"
     y="14.347513" /></text>




<g
   aria-label="2"
   style="font-style:normal;font-weight:normal;font-size:9.94223118px;line-height:1.25;font-family:sans-serif;letter-spacing:0px;word-spacing:0px;fill:#646464;fill-opacity:1;stroke:#000000;stroke-width:0;stroke-miterlimit:4;stroke-dasharray:none;stroke-opacity:1"
   id="text859"><path
     style="font-style:normal;font-variant:normal;font-weight:bold;font-stretch:normal;font-size:9.94223118px;font-family:sans-serif;-inkscape-font-specification:'sans-serif, Bold';font-variant-ligatures:normal;font-variant-caps:normal;font-variant-numeric:normal;font-feature-settings:normal;text-align:start;writing-mode:lr-tb;text-anchor:start;fill:#646464;fill-opacity:1;stroke:#000000;stroke-width:0;stroke-miterlimit:4;stroke-dasharray:none;stroke-opacity:1"
     d="m 21.573796,20.838147 h 3.189476 V 22.212 h -5.267247 v -1.373853 l 2.64576,-2.335065 q 0.354386,-0.320404 0.524298,-0.626244 0.169911,-0.305841 0.169911,-0.635954 0,-0.509733 -0.344677,-0.820428 -0.339823,-0.310695 -0.907811,-0.310695 -0.436915,0 -0.956358,0.18933 -0.519442,0.184475 -1.111704,0.553425 v -1.592311 q 0.631099,-0.208748 1.247633,-0.315549 0.616535,-0.111656 1.208797,-0.111656 1.301034,0 2.019516,0.572844 0.723336,0.572843 0.723336,1.597165 0,0.592261 -0.30584,1.10685 -0.30584,0.509733 -1.286471,1.368998 z"
     id="path1450" /></g>


<g
   aria-label="R"
   style="font-style:normal;font-weight:normal;font-size:40px;line-height:1.25;font-family:sans-serif;letter-spacing:0px;word-spacing:0px;fill:#646464;fill-opacity:1;stroke:none"
   id="text1454"
   transform="matrix(0.25305077,0,0,0.25305077,13.955402,13.789067)"><path
     d="m 7.9821466,19.613673 q 1.269531,0.429687 2.4609374,1.835937 1.210938,1.40625 2.421875,3.867188 l 4.003906,7.96875 H 12.630584 L 8.9001146,25.805079 q -1.445312,-2.929687 -2.8125,-3.886719 -1.347656,-0.957031 -3.691406,-0.957031 h -4.296875 v 12.324219 h -3.945312 V 4.1253918 h 8.90625 q 5,0 7.4609374,2.089844 2.460938,2.089843 2.460938,6.3085932 0,2.753907 -1.289063,4.570313 -1.269531,1.816406 -3.7109374,2.519531 z M -1.9006664,7.3675788 V 17.719142 h 4.960938 q 2.851562,0 4.296875,-1.308594 1.464843,-1.328125 1.464843,-3.886719 0,-2.5585932 -1.464843,-3.8476562 -1.445313,-1.308594 -4.296875,-1.308594 z"
     id="path1456"
     inkscape:connector-curvature="0"
     style="fill:#646464;fill-opacity:1" /></g></svg>