<?xml version="1.0" encoding="UTF-8" standalone="no"?>
<!-- Created with Inkscape (http://www.inkscape.org/) -->

<svg
   xmlns:dc="http://purl.org/dc/elements/1.1/"
   xmlns:cc="http://creativecommons.org/ns#"
   xmlns:rdf="http://www.w3.org/1999/02/22-rdf-syntax-ns#"
   xmlns:svg="http://www.w3.org/2000/svg"
   xmlns="http://www.w3.org/2000/svg"
   xmlns:sodipodi="http://sodipodi.sourceforge.net/DTD/sodipodi-0.dtd"
   xmlns:inkscape="http://www.inkscape.org/namespaces/inkscape"
   width="64"
   height="64"
   viewBox="0 0 16.933333 16.933333"
   version="1.1"
   id="svg8"
   inkscape:version="0.92.5 (2060ec1f9f, 2020-04-08)"
   sodipodi:docname="button_west.svg">
  <defs
     id="defs2" />
  <sodipodi:namedview
     id="base"
     pagecolor="#ffffff"
     bordercolor="#666666"
     borderopacity="1.0"
     inkscape:pageopacity="0.0"
     inkscape:pageshadow="2"
     inkscape:zoom="11.313708"
     inkscape:cx="59.631745"
     inkscape:cy="34.455617"
     inkscape:document-units="px"
     inkscape:current-layer="layer1"
     showgrid="false"
     units="px"
     inkscape:window-width="1920"
     inkscape:window-height="1029"
     inkscape:window-x="0"
     inkscape:window-y="25"
     inkscape:window-maximized="1" />
  <metadata
     id="metadata5">
    <rdf:RDF>
      <cc:Work
         rdf:about="">
        <dc:format>image/svg+xml</dc:format>
        <dc:type
           rdf:resource="http://purl.org/dc/dcmitype/StillImage" />
        <dc:title></dc:title>
      </cc:Work>
    </rdf:RDF>
  </metadata>
  <g
     inkscape:label="Layer 1"
     inkscape:groupmode="layer"
     id="layer1"
     transform="translate(0,-280.06667)">
    <path
       style="opacity:1;fill:#c8c8c8;fill-opacity:1;stroke:#ffffff;stroke-width:0.49612403;stroke-miterlimit:4;stroke-dasharray:none;stroke-opacity:1"
       d="M 32 0.24804688 A 31.751938 31.751938 0 0 0 0.24804688 32 A 31.751938 31.751938 0 0 0 32 63.751953 A 31.751938 31.751938 0 0 0 63.751953 32 A 31.751938 31.751938 0 0 0 32 0.24804688 z M 32 2 A 11.999998 11.999998 0 0 1 44 14 A 11.999998 11.999998 0 0 1 32 26 A 11.999998 11.999998 0 0 1 20 14 A 11.999998 11.999998 0 0 1 32 2 z M 14 20 A 11.999998 11.999998 0 0 1 26 32 A 11.999998 11.999998 0 0 1 14 44 A 11.999998 11.999998 0 0 1 2 32 A 11.999998 11.999998 0 0 1 14 20 z M 50 20 A 11.999998 11.999998 0 0 1 62 32 A 11.999998 11.999998 0 0 1 50 44 A 11.999998 11.999998 0 0 1 38 32 A 11.999998 11.999998 0 0 1 50 20 z M 32 38 A 11.999998 11.999998 0 0 1 44 50 A 11.999998 11.999998 0 0 1 32 62 A 11.999998 11.999998 0 0 1 20 50 A 11.999998 11.999998 0 0 1 32 38 z "
       transform="matrix(0.26458333,0,0,0.26458333,0,280.06667)"
       id="path815" />
    <path
       style="opacity:1;fill:#ffee00;fill-opacity:1;stroke:#ffffff;stroke-width:0;stroke-miterlimit:4;stroke-dasharray:none;stroke-opacity:1"
       d="m 1.0583338,288.53334 a 2.6458328,2.6458328 0 0 0 2.64584,2.64583 2.6458328,2.6458328 0 0 0 2.64583,-2.64583 2.6458328,2.6458328 0 0 0 -2.64583,-2.64584 2.6458328,2.6458328 0 0 0 -2.64584,2.64584 z m 0.63097,0 3.20808,-1.85209 v 3.70417 z"
       id="path2285-5"
       inkscape:connector-curvature="0" />
  </g>
</svg>
